<?xml version="1.0" encoding="UTF-8" standalone="no"?>
<svg
   xmlns:dc="http://purl.org/dc/elements/1.1/"
   xmlns:cc="http://creativecommons.org/ns#"
   xmlns:rdf="http://www.w3.org/1999/02/22-rdf-syntax-ns#"
   xmlns:svg="http://www.w3.org/2000/svg"
   xmlns="http://www.w3.org/2000/svg"
   xmlns:sodipodi="http://sodipodi.sourceforge.net/DTD/sodipodi-0.dtd"
   xmlns:inkscape="http://www.inkscape.org/namespaces/inkscape"
   width="128mm"
   height="128mm"
   viewBox="0 0 128 128"
   version="1.1"
   id="svg34"
   sodipodi:docname="bear1.svg"
   inkscape:version="1.0.1 (3bc2e813f5, 2020-09-07)">
  <defs
     id="defs28" />
  <sodipodi:namedview
     id="base"
     pagecolor="#ffffff"
     bordercolor="#666666"
     borderopacity="1.0"
     inkscape:pageopacity="0.0"
     inkscape:pageshadow="2"
     inkscape:zoom="1.8741319"
     inkscape:cx="226.77165"
     inkscape:cy="272.09337"
     inkscape:document-units="mm"
     inkscape:current-layer="layer1"
     inkscape:document-rotation="0"
     showgrid="false"
     inkscape:window-width="1609"
     inkscape:window-height="1040"
     inkscape:window-x="208"
     inkscape:window-y="0"
     inkscape:window-maximized="0" />
  <metadata
     id="metadata31">
    <rdf:RDF>
      <cc:Work
         rdf:about="">
        <dc:format>image/svg+xml</dc:format>
        <dc:type
           rdf:resource="http://purl.org/dc/dcmitype/StillImage" />
        <dc:title></dc:title>
      </cc:Work>
    </rdf:RDF>
  </metadata>
  <g
     inkscape:label="Слой 1"
     inkscape:groupmode="layer"
     id="layer1">
    <path
       style="color:#000000;font-style:normal;font-variant:normal;font-weight:normal;font-stretch:normal;font-size:medium;line-height:normal;font-family:sans-serif;font-variant-ligatures:normal;font-variant-position:normal;font-variant-caps:normal;font-variant-numeric:normal;font-variant-alternates:normal;font-variant-east-asian:normal;font-feature-settings:normal;font-variation-settings:normal;text-indent:0;text-align:start;text-decoration:none;text-decoration-line:none;text-decoration-style:solid;text-decoration-color:#000000;letter-spacing:normal;word-spacing:normal;text-transform:none;writing-mode:lr-tb;direction:ltr;text-orientation:mixed;dominant-baseline:auto;baseline-shift:baseline;text-anchor:start;white-space:normal;shape-padding:0;shape-margin:0;inline-size:0;clip-rule:nonzero;display:inline;overflow:visible;visibility:visible;opacity:1;isolation:auto;mix-blend-mode:normal;color-interpolation:sRGB;color-interpolation-filters:linearRGB;solid-color:#000000;solid-opacity:1;vector-effect:none;fill:none;fill-opacity:1;fill-rule:nonzero;stroke:#ffffff;stroke-width:0.499999;stroke-linecap:butt;stroke-linejoin:miter;stroke-miterlimit:4;stroke-dasharray:none;stroke-dashoffset:0;stroke-opacity:0;color-rendering:auto;image-rendering:auto;shape-rendering:auto;text-rendering:auto;enable-background:accumulate;stop-color:#000000;stop-opacity:1"
       d="m 31.044334,3.8640486 c -0.264888,0.014598 -0.500883,0.041438 -0.695312,0.085937 -0.194431,0.0445 -0.350094,0.1020463 -0.458986,0.2109375 -0.07762,0.077618 -0.09529,0.1866068 -0.08789,0.2734375 0.0074,0.086831 0.03242,0.1660595 0.05469,0.2382813 0.02228,0.072222 0.04119,0.1378661 0.04492,0.1816405 0.0037,0.043775 -2.48e-4,0.051028 -0.01172,0.0625 -0.313084,0.3130847 -1.088647,0.7205046 -1.861328,1.1152344 -0.772681,0.39473 -1.541699,0.7780271 -1.917969,1.1542969 -0.02813,0.028135 -0.02373,0.026562 -0.03711,0.044922 -0.01337,0.018359 -0.03164,0.044201 -0.05273,0.074219 -0.04219,0.060036 -0.09848,0.1418524 -0.166015,0.2402343 -0.135069,0.196764 -0.311576,0.4568534 -0.490235,0.7226565 -0.178658,0.2658027 -0.359888,0.5370337 -0.503906,0.7578124 -0.144018,0.2207784 -0.245594,0.3779078 -0.287109,0.4609375 -0.145385,0.2907707 -0.03265,0.6115036 0.03906,0.8847656 0.03586,0.136631 0.06371,0.264384 0.06445,0.365234 7.41e-4,0.100851 -0.01718,0.167569 -0.07812,0.228516 -0.205212,0.205211 -0.619575,0.276848 -1.060547,0.339844 -0.440973,0.063 -0.910229,0.117258 -1.208985,0.416016 -0.122162,0.122161 -0.151643,0.289273 -0.138672,0.441406 0.01297,0.152133 0.06288,0.302822 0.107422,0.447266 0.04454,0.144442 0.08445,0.281548 0.09375,0.390625 0.0093,0.109076 -0.0065,0.176405 -0.0625,0.232421 -0.01147,0.01147 -0.01872,0.01545 -0.0625,0.01172 -0.04377,-0.0037 -0.109419,-0.02265 -0.18164,-0.04492 -0.07222,-0.02227 -0.151451,-0.04728 -0.238282,-0.05469 -0.08683,-0.0074 -0.195819,0.01027 -0.273437,0.08789 -0.298757,0.298757 -0.351066,0.768013 -0.414063,1.208985 -0.063,0.440972 -0.136585,0.853382 -0.341796,1.058594 -0.01147,0.01147 -0.01873,0.01545 -0.0625,0.01172 -0.04378,-0.0037 -0.10942,-0.02265 -0.181641,-0.04492 -0.07222,-0.02227 -0.151451,-0.04728 -0.238281,-0.05469 -0.08683,-0.0074 -0.19582,0.01027 -0.273438,0.08789 -0.200557,0.200557 -0.310849,0.574302 -0.416016,1.109375 -0.105166,0.535073 -0.18789,1.228375 -0.251953,2.033203 -0.128125,1.609655 -0.184338,3.666936 -0.203125,5.77539 -0.03757,4.216909 0.07617,8.642971 0.07617,10.074221 0,1.626981 0.285518,5.396863 0.427735,9.052732 0.07111,1.827938 0.1059,3.626414 0.05273,5.105469 -0.0531,1.477272 -0.205254,2.644754 -0.464844,3.166017 -0.0018,2.65e-4 -0.0031,7.94e-4 -0.01563,0 -0.03438,-0.0019 -0.104163,-0.01995 -0.179687,-0.04492 -0.07552,-0.02495 -0.157612,-0.05452 -0.248047,-0.06641 -0.09043,-0.01188 -0.206514,-0.0024 -0.289063,0.08008 -0.122162,0.122163 -0.151643,0.289271 -0.138671,0.441404 0.01297,0.152135 0.06092,0.302823 0.105468,0.447267 0.04454,0.144444 0.0864,0.283502 0.0957,0.392579 0.0093,0.109077 -0.0065,0.17445 -0.0625,0.230468 -0.855217,0.855218 -2.114766,1.36086 -3.023437,2.269532 -0.109781,0.109781 -0.118114,0.259757 -0.109375,0.408202 0.0087,0.148444 0.04074,0.309332 0.07226,0.466796 0.03152,0.157467 0.06329,0.310412 0.07031,0.429689 0.007,0.119274 -0.01689,0.190722 -0.0332,0.207031 -0.205212,0.205213 -0.617622,0.276847 -1.058594,0.339844 -0.440972,0.063 -0.910228,0.117258 -1.208984,0.416015 -0.371107,0.371107 -0.384518,0.999194 -0.416016,1.597657 -0.0315,0.598461 -0.08099,1.166927 -0.339844,1.425779 -0.05602,0.05602 -0.123345,0.0718 -0.232422,0.0625 -0.109076,-0.0093 -0.246181,-0.05116 -0.390625,-0.0957 -0.144443,-0.04454 -0.295132,-0.0925 -0.447265,-0.105465 -0.152133,-0.01297 -0.319244,0.01651 -0.441407,0.13867 -0.161777,0.161777 -0.218316,0.372854 -0.216796,0.580078 0.0015,0.207224 0.05238,0.417227 0.107421,0.626954 0.11008,0.419452 0.220326,0.823018 0.08398,1.095703 0.01894,-0.03788 0.0041,-0.0086 -0.03125,0.01368 -0.03531,0.02222 -0.08846,0.05263 -0.152344,0.08398 -0.127774,0.0627 -0.298798,0.136025 -0.472656,0.210936 -0.173857,0.07491 -0.3511653,0.150209 -0.4980467,0.21875 -0.1468813,0.06854 -0.2515957,0.112924 -0.3320311,0.19336 -0.1457505,0.145751 -0.2080009,0.325599 -0.2324219,0.505859 -0.024421,0.180261 -0.016677,0.366485 -0.023437,0.556641 -0.013523,0.38031 -0.068562,0.773639 -0.5000001,1.205077 -0.011472,0.01148 -0.02068,0.01545 -0.064453,0.01172 -0.043775,-0.0037 -0.1094192,-0.02265 -0.1816407,-0.04492 -0.072222,-0.02228 -0.1514506,-0.04728 -0.2382813,-0.05469 -0.086831,-0.0074 -0.19582,0.01026 -0.2734374,0.08789 -0.1850154,0.185018 -0.3391527,0.494009 -0.4941406,0.865235 -0.1549881,0.371229 -0.3022483,0.802912 -0.4375002,1.222658 -0.1352518,0.419743 -0.2581838,0.82659 -0.3613282,1.140624 -0.051572,0.157017 -0.098871,0.291817 -0.1386718,0.390626 -0.0398,0.09881 -0.086874,0.166952 -0.080078,0.160155 -0.1897076,0.189708 -0.3280421,0.290864 -0.4082031,0.326173 -0.04008,0.01765 -0.062064,0.01823 -0.068359,0.01757 -0.0063,-5.29e-4 -0.00151,0.0029 -0.00586,-0.0021 -0.00872,-0.0096 -0.035208,-0.07385 -0.042969,-0.16211 -0.00776,-0.08826 -0.00353,-0.195297 0,-0.29492 0.00353,-0.09962 0.01089,-0.1851 -0.00391,-0.267579 -0.0037,-0.02061 -0.00927,-0.04152 -0.023437,-0.06836 -0.014171,-0.02684 -0.044514,-0.06532 -0.09375,-0.08008 -0.049236,-0.01476 -0.095474,7.94e-4 -0.1230469,0.01564 -0.027573,0.01484 -0.045116,0.03091 -0.0625,0.04883 -0.069536,0.07167 -0.1371223,0.181671 -0.2480469,0.380862 -0.1109246,0.199189 -0.2580061,0.482807 -0.4550781,0.876951 -0.1330082,0.266017 -0.2353911,0.745437 -0.3554688,1.21289 -0.060039,0.23373 -0.1221997,0.461946 -0.1875,0.646485 -0.0653,0.184539 -0.1418273,0.327375 -0.1894531,0.375002 -0.00345,0.0035 -0.016743,0.01 -0.072266,0.0021 -0.055523,-0.008 -0.134494,-0.03191 -0.2148437,-0.05859 -0.08035,-0.02669 -0.1589743,-0.0568 -0.25,-0.06055 -0.045513,-0.0019 -0.099175,0.0024 -0.1503907,0.0332 -0.051216,0.03071 -0.08947,0.08835 -0.1035156,0.144531 -0.2548362,1.019347 -0.00391,2.070092 -0.00391,3.056641 h 0.265625 c 0,-1.020593 -0.2281108,-2.036897 -0.00391,-2.966797 0.032695,0.0039 0.092164,0.01908 0.1640625,0.04297 0.078727,0.02614 0.1663924,0.05684 0.2597656,0.07031 0.093373,0.01349 0.2112361,0.0075 0.296875,-0.07813 0.1107626,-0.110762 0.1796546,-0.273859 0.25,-0.472657 0.070345,-0.198794 0.1345949,-0.431596 0.1953125,-0.667967 0.1214353,-0.472741 0.2398694,-0.96802 0.3359375,-1.160158 0.1961897,-0.392377 0.3418227,-0.674333 0.4492188,-0.867185 0.030732,-0.05519 0.033528,-0.05234 0.058594,-0.09375 -0.0024,0.08244 -0.00565,0.167413 0.00195,0.253905 0.00983,0.111773 0.027887,0.224422 0.1113282,0.316407 0.04172,0.04599 0.1040881,0.08084 0.1718749,0.08789 0.067787,0.0071 0.1348846,-0.009 0.2031251,-0.03906 0.1364808,-0.06011 0.2889189,-0.179544 0.4902343,-0.38086 0.066827,-0.06683 0.092864,-0.141129 0.1367187,-0.249999 0.043855,-0.108871 0.092117,-0.246669 0.1445313,-0.40625 0.1048279,-0.319161 0.2270371,-0.723862 0.3613282,-1.140626 0.1342909,-0.416761 0.2818532,-0.844352 0.4316405,-1.203124 0.1497875,-0.35877 0.3088454,-0.650642 0.4375001,-0.779296 0.011472,-0.01148 0.02068,-0.01545 0.064453,-0.01172 0.043774,0.0037 0.1094192,0.02265 0.1816407,0.04492 0.072221,0.02228 0.1514509,0.04728 0.2382814,0.05469 0.08683,0.0074 0.1938663,-0.01026 0.2714844,-0.08789 0.4829932,-0.482994 0.5637782,-0.979302 0.5781249,-1.382813 0.00717,-0.201755 0.00148,-0.381651 0.021484,-0.529296 0.020003,-0.147646 0.059001,-0.25822 0.1562502,-0.355471 0.00159,-0.0016 0.1173485,-0.07508 0.2578124,-0.140623 0.1404637,-0.06555 0.3177837,-0.14165 0.4921877,-0.216797 0.174403,-0.07515 0.345434,-0.149574 0.482422,-0.216797 0.06849,-0.03361 0.128614,-0.06477 0.177734,-0.0957 0.04912,-0.03093 0.08959,-0.04637 0.126953,-0.121092 0.201731,-0.403463 0.04362,-0.867492 -0.06445,-1.279298 -0.05404,-0.205901 -0.09842,-0.400034 -0.09961,-0.562499 -0.0012,-0.162467 0.03318,-0.285133 0.138672,-0.390625 0.05602,-0.05602 0.123345,-0.0718 0.232422,-0.0625 0.109077,0.0093 0.248135,0.05116 0.392578,0.0957 0.144443,0.04454 0.295132,0.0925 0.447265,0.105468 0.152133,0.01296 0.319245,-0.01651 0.441406,-0.138673 0.371107,-0.371105 0.384519,-1.001147 0.416016,-1.59961 0.0315,-0.598461 0.08099,-1.164974 0.339845,-1.423826 0.205211,-0.205214 0.617621,-0.278802 1.058593,-0.341797 0.440973,-0.063 0.910229,-0.117258 1.208985,-0.416018 0.109781,-0.109778 0.118114,-0.259757 0.109374,-0.408202 -0.0087,-0.148444 -0.0427,-0.309332 -0.07422,-0.466796 -0.03152,-0.157467 -0.06134,-0.310414 -0.06836,-0.429689 -0.007,-0.119274 0.01689,-0.190722 0.0332,-0.207031 0.855217,-0.855215 2.114766,-1.358905 3.023437,-2.267577 0.122163,-0.122163 0.151644,-0.289274 0.138672,-0.441407 -0.01297,-0.152133 -0.06092,-0.302823 -0.105469,-0.447265 -0.04454,-0.144444 -0.0864,-0.281548 -0.0957,-0.390625 -0.0093,-0.109077 0.0065,-0.176406 0.0625,-0.232424 0.0065,-0.0065 0.016,-0.01249 0.06641,-0.0059 0.0504,0.0066 0.124067,0.03116 0.201172,0.05664 0.0771,0.02548 0.156003,0.05374 0.246092,0.05859 0.04505,0.0024 0.09645,-0.0026 0.146486,-0.0254 0.05004,-0.02283 0.09534,-0.06567 0.121093,-0.117187 0.309219,-0.618439 0.440548,-1.788353 0.49414,-3.279298 0.05359,-1.490943 0.01655,-3.293751 -0.05469,-5.125001 -0.142474,-3.662495 -0.425781,-7.447147 -0.425781,-9.042969 0,-1.445217 -0.113688,-5.861772 -0.07617,-10.072265 0.01876,-2.105246 0.07397,-4.157853 0.201173,-5.755859 0.0636,-0.799003 0.146231,-1.48588 0.248047,-2.003906 0.101815,-0.518026 0.241421,-0.870327 0.34375,-0.972656 0.01147,-0.01147 0.02068,-0.01545 0.06445,-0.01172 0.04378,0.0037 0.109419,0.02265 0.181641,0.04492 0.07222,0.02227 0.149497,0.04728 0.236328,0.05469 0.08683,0.0074 0.19582,-0.01027 0.273438,-0.08789 0.298756,-0.298757 0.353019,-0.768013 0.416015,-1.208985 0.063,-0.440972 0.134632,-0.853382 0.339844,-1.058595 0.01147,-0.01147 0.02068,-0.01545 0.06445,-0.01172 0.04377,0.0037 0.109419,0.02265 0.181641,0.04492 0.07222,0.02227 0.149497,0.04728 0.236328,0.05469 0.08683,0.0074 0.195819,-0.01027 0.273437,-0.08789 0.122163,-0.122162 0.151644,-0.289273 0.138672,-0.441406 -0.01297,-0.152133 -0.06092,-0.302822 -0.105469,-0.447265 -0.04454,-0.144444 -0.0864,-0.283502 -0.0957,-0.392579 -0.0093,-0.109076 0.0065,-0.174451 0.0625,-0.230468 0.205212,-0.205213 0.617622,-0.278801 1.058594,-0.341797 0.440972,-0.063 0.910228,-0.115306 1.208984,-0.414063 0.117233,-0.117232 0.159271,-0.27236 0.158204,-0.417968 -0.0011,-0.145609 -0.03736,-0.289233 -0.07422,-0.429688 -0.07372,-0.28091 -0.13859,-0.5392265 -0.05859,-0.6992187 0.01818,-0.036354 0.12857,-0.2164596 0.271484,-0.435547 0.142915,-0.2190875 0.323752,-0.4907373 0.501953,-0.7558593 0.178202,-0.2651223 0.353877,-0.5229532 0.488282,-0.7187502 0.0672,-0.097898 0.12481,-0.1796446 0.166015,-0.2382811 0.0206,-0.029318 0.03703,-0.054115 0.04883,-0.070313 0.0118,-0.016198 0.03171,-0.037567 0.0098,-0.015624 0.307304,-0.307304 1.080731,-0.7106859 1.853516,-1.1054689 0.772784,-0.3947827 1.546726,-0.7811039 1.927734,-1.1621094 0.07762,-0.077618 0.0953,-0.1866071 0.08789,-0.2734374 -0.0074,-0.08683 -0.03437,-0.1641067 -0.05664,-0.2363282 -0.02228,-0.072221 -0.03924,-0.1378664 -0.04297,-0.1816406 -0.0037,-0.043774 2.46e-4,-0.052981 0.01172,-0.064453 0.0441,-0.044105 0.160888,-0.1014552 0.332031,-0.140625 0.171143,-0.03917 0.392787,-0.064036 0.648438,-0.078125 0.511297,-0.028178 1.155401,-0.010762 1.810546,0.027344 1.310286,0.076211 2.6533,0.2304688 3.16211,0.2304688 0.07384,0 0.235402,0.074238 0.427733,0.2382812 0.192334,0.1640434 0.419664,0.4069163 0.664062,0.7050782 0.488799,0.5963237 1.050057,1.4131191 1.59961,2.2714843 1.099103,1.716731 2.15084,3.6083203 2.482421,4.2714853 0.157623,0.315245 0.185558,0.83473 0.134766,1.445312 -0.05079,0.610582 -0.173929,1.312014 -0.28711,2.005859 -0.113178,0.693846 -0.215651,1.379236 -0.220702,1.970703 -0.0051,0.591468 0.08232,1.099903 0.398438,1.416016 0.417815,0.417814 0.998686,0.605921 1.65625,0.791016 0.657566,0.185095 1.397,0.366468 2.156251,0.746094 l 1.427734,0.71289 c -0.01111,0.08954 -0.03314,0.189651 -0.05273,0.308594 -0.02442,0.148221 -0.02967,0.331657 0.103516,0.464844 10e-5,9.9e-5 0.04667,0.03117 0.04688,0.03125 2.06e-4,8e-5 0.02117,0.0058 0.02148,0.0059 5.29e-4,1.23e-4 0.01847,0.0017 0.02344,0.002 0.0099,4.5e-4 0.01535,3.17e-4 0.02148,0 0.01228,-6.35e-4 0.02394,-2.91e-4 0.03906,-0.002 0.03023,-0.0033 0.07017,-0.01037 0.121095,-0.01758 0.101859,-0.01441 0.244982,-0.03486 0.416017,-0.0625 0.342064,-0.05529 0.797544,-0.134134 1.257811,-0.21875 0.460266,-0.08462 0.924811,-0.175506 1.289063,-0.257813 0.182126,-0.04115 0.338656,-0.07973 0.458983,-0.115234 0.06016,-0.01775 0.111564,-0.03559 0.154297,-0.05273 0.04273,-0.01714 0.07447,-0.02564 0.117187,-0.06836 0.07762,-0.07762 0.09529,-0.186607 0.08789,-0.273437 -0.0074,-0.08683 -0.03242,-0.164107 -0.05469,-0.236328 -0.02228,-0.07222 -0.04119,-0.137867 -0.04492,-0.181641 -0.0037,-0.04377 2.46e-4,-0.05298 0.01172,-0.06445 -0.005,0.005 0.04838,-0.03241 0.128907,-0.06641 0.08052,-0.034 0.192371,-0.07301 0.328126,-0.117188 0.27151,-0.08836 0.640231,-0.194502 1.072264,-0.308594 0.864068,-0.228183 1.979977,-0.493969 3.083986,-0.748047 1.104008,-0.254077 2.196086,-0.496021 3.015625,-0.677734 0.409768,-0.09086 0.751245,-0.166205 0.992188,-0.220703 0.12047,-0.02725 0.2164,-0.05034 0.283202,-0.06641 0.0334,-0.008 0.05827,-0.01418 0.07813,-0.01953 0.0099,-0.0027 0.01879,-0.0051 0.02734,-0.0078 0.0043,-0.0014 0.009,-0.0012 0.01564,-0.0039 0.0033,-0.0014 0.01323,-0.0076 0.01368,-0.0078 5.3e-4,-2.3e-4 0.03303,-0.02326 0.0332,-0.02344 0.07762,-0.07762 0.0953,-0.186607 0.08789,-0.273438 -0.0074,-0.08683 -0.03437,-0.164106 -0.05664,-0.236328 -0.02228,-0.07222 -0.04119,-0.139819 -0.04492,-0.183594 -0.0037,-0.04377 0.0021,-0.05103 0.01368,-0.0625 0.084,-0.084 0.359021,-0.166581 0.73047,-0.191406 0.371446,-0.02482 0.835271,-0.0085 1.310545,0.02539 0.95055,0.06775 1.935924,0.205078 2.40039,0.205078 1.9383,0 6.471462,-0.564092 10.908204,-0.939453 2.218373,-0.187681 4.409715,-0.327259 6.228517,-0.328125 1.818798,-8.73e-4 3.273824,0.149607 3.970702,0.498047 0.712058,0.356028 1.985558,0.872844 3.201173,1.421875 1.215615,0.54903 2.379501,1.143173 2.8125,1.576172 0.01146,0.01147 0.01545,0.02068 0.01172,0.06445 -0.0037,0.04377 -0.02265,0.109419 -0.04492,0.18164 -0.02228,0.07222 -0.04924,0.149498 -0.05664,0.236328 -0.0074,0.08683 0.01222,0.19582 0.08984,0.273438 0.161777,0.161777 0.370901,0.218316 0.578125,0.216797 0.207222,-0.0015 0.41918,-0.05433 0.628904,-0.109375 0.417965,-0.109689 0.817216,-0.216152 1.089846,-0.08203 0.0098,0.0092 0.02609,0.02335 0.04492,0.04297 0.03767,0.03924 0.08978,0.09792 0.154297,0.169922 0.12904,0.144003 0.305279,0.346023 0.51367,0.587891 0.416785,0.483736 0.959667,1.12376 1.503907,1.767578 0.544238,0.643818 1.089819,1.291842 1.511718,1.791015 0.21095,0.249587 0.391623,0.462576 0.525391,0.619141 0.133768,0.156566 0.210688,0.245844 0.251952,0.287109 0.132864,0.132862 0.325917,0.155851 0.533205,0.154297 0.207287,-0.0016 0.439518,-0.03402 0.673827,-0.07031 0.23431,-0.03629 0.470096,-0.0759 0.66797,-0.0918 0.197874,-0.01589 0.358862,-0.0012 0.427732,0.0332 0.22532,0.112657 0.72229,0.270058 1.38868,0.443359 0.66638,0.173302 1.49004,0.355081 2.32421,0.492188 0.83418,0.137107 1.67866,0.230538 2.38868,0.220703 0.71002,-0.0098 1.29335,-0.105858 1.61132,-0.423828 0.11724,-0.117233 0.15732,-0.27236 0.15625,-0.417969 -10e-4,-0.145608 -0.0374,-0.289232 -0.0742,-0.429687 -0.0737,-0.28091 -0.13859,-0.539227 -0.0586,-0.699219 0.2413,-0.482593 0.64864,-0.716986 1.07813,-0.898438 0.42949,-0.181451 0.87832,-0.292384 1.16601,-0.580078 0.10977,-0.109768 0.15603,-0.268311 0.22071,-0.478515 0.0647,-0.210205 0.12841,-0.464813 0.1914,-0.716797 0.063,-0.251984 0.12619,-0.501903 0.1875,-0.701172 0.0613,-0.199269 0.14003,-0.35487 0.15625,-0.371094 0.20521,-0.205212 0.61762,-0.276848 1.0586,-0.339844 0.44097,-0.063 0.91022,-0.117259 1.20898,-0.416015 0.22017,-0.22017 0.31566,-0.523159 0.41016,-0.806641 0.0945,-0.283482 0.18789,-0.547271 0.3457,-0.705078 0.28024,-0.280245 0.8659,-0.375473 1.60351,-0.314453 0.73762,0.06102 1.61408,0.267192 2.45704,0.523437 0.84295,0.256246 1.65354,0.562296 2.26562,0.816407 0.30604,0.127055 0.56271,0.241342 0.74805,0.330078 0.0927,0.04437 0.16751,0.08216 0.2207,0.111328 0.0532,0.02917 0.0941,0.06089 0.0781,0.04492 0.0609,0.06095 0.0808,0.127665 0.0801,0.228515 -8e-4,0.100851 -0.0305,0.228604 -0.0664,0.365235 -0.0717,0.273262 -0.18445,0.593995 -0.0391,0.884765 0.19707,0.394144 0.34415,0.677763 0.45507,0.876954 0.11093,0.19919 0.17852,0.309187 0.24805,0.380859 0.0174,0.01792 0.0349,0.03399 0.0625,0.04883 0.0276,0.01484 0.0738,0.02843 0.12305,0.01367 0.0492,-0.01476 0.0796,-0.05129 0.0938,-0.07813 0.0142,-0.02683 0.0197,-0.04969 0.0234,-0.07031 0.0148,-0.08248 0.007,-0.166004 0.004,-0.265626 -0.004,-0.09962 -0.006,-0.206658 0.002,-0.294921 0.008,-0.08826 0.0323,-0.152494 0.041,-0.16211 0.004,-0.0048 -5.3e-4,-0.0013 0.006,-0.002 0.006,-6.61e-4 0.0283,-7.4e-5 0.0684,0.01758 0.0802,0.03531 0.22045,0.134511 0.41016,0.324219 0.19417,0.19418 0.31034,0.608205 0.35546,1.138672 0.0451,0.530466 0.0281,1.171656 0.008,1.8125 -0.0203,0.640844 -0.0449,1.282693 -0.006,1.828125 0.039,0.545433 0.1302,1.001295 0.39843,1.269531 0.0776,0.07762 0.18661,0.0953 0.27344,0.08789 0.0868,-0.0074 0.16411,-0.03437 0.23633,-0.05664 0.0722,-0.02227 0.13787,-0.03924 0.18164,-0.04297 0.0438,-0.0037 0.053,2.49e-4 0.0644,0.01172 0.29812,0.29811 0.60133,1.054509 0.85157,2.007815 0.25023,0.953304 0.46228,2.105041 0.64062,3.226562 0.17834,1.121519 0.32259,2.212361 0.44336,3.042968 0.0604,0.415306 0.11461,0.765902 0.16406,1.025392 0.0247,0.129744 0.0486,0.236604 0.0723,0.32031 0.0236,0.08371 0.029,0.136393 0.0957,0.203126 0.22017,0.220171 0.52316,0.315661 0.80664,0.410157 0.28348,0.09449 0.54727,0.187894 0.70508,0.345702 0.13408,0.134083 0.14006,0.328507 0.0977,0.585939 -0.0424,0.257431 -0.13672,0.550817 -0.13672,0.833982 0,1.026837 0.22223,2.659079 0.33203,4.259768 0.1098,1.600689 0.0943,3.170849 -0.31836,3.996095 -0.21949,0.438965 -0.52931,1.063109 -0.9082,1.636717 -0.3789,0.573609 -0.82798,1.092701 -1.29883,1.328124 -0.30515,0.152577 -0.79579,0.22606 -1.34961,0.263673 -0.55382,0.03761 -1.17165,0.04338 -1.75391,0.08203 -0.58226,0.03865 -1.12844,0.106669 -1.54687,0.289063 -0.41844,0.182395 -0.71485,0.51055 -0.71485,0.994142 0,0.336072 0.0761,1.223145 0.19532,2.39453 0.11921,1.171384 0.28215,2.617298 0.45312,4.033202 0.17098,1.415907 0.35024,2.800345 0.50586,3.851564 0.0778,0.52561 0.14913,0.96901 0.21094,1.291016 0.0309,0.161004 0.0597,0.291814 0.0859,0.390625 0.0131,0.04941 0.0256,0.0896 0.0391,0.125 0.0134,0.0354 0.0201,0.0631 0.0606,0.103515 0.0776,0.07762 0.18465,0.09529 0.27148,0.08789 0.0868,-0.0074 0.16606,-0.03242 0.23828,-0.05469 0.0722,-0.02228 0.13787,-0.04119 0.18164,-0.04492 0.0438,-0.0037 0.053,2.47e-4 0.0645,0.01172 0.11071,0.110718 0.1575,0.345922 0.13867,0.666015 -0.0188,0.320096 -0.097,0.709792 -0.17578,1.103516 -0.0787,0.393727 -0.15915,0.791387 -0.17969,1.140627 -0.0206,0.349237 0.0125,0.664877 0.2168,0.86914 0.0776,0.07762 0.1866,0.09529 0.27343,0.08789 0.0868,-0.0074 0.16411,-0.03242 0.23633,-0.05469 0.0722,-0.02228 0.13787,-0.04119 0.18164,-0.04492 0.0438,-0.0037 0.053,2.46e-4 0.0644,0.01172 0.16833,0.168323 0.24394,0.499454 0.24024,0.933593 -0.004,0.434139 -0.0804,0.960446 -0.16797,1.498047 -0.0876,0.537602 -0.18571,1.086681 -0.22656,1.578126 -0.0409,0.491442 -0.0322,0.925904 0.1289,1.248045 1.06564,2.131282 1.15618,4.579916 2.26758,6.802734 0.3232,0.646393 0.16467,1.594315 -0.0117,2.564455 -0.17639,0.970137 -0.37064,1.963796 0.0117,2.728516 0.64079,1.281573 0.85259,2.461022 1.51172,3.779295 0.08,0.159993 0.0151,0.418309 -0.0586,0.699219 -0.0369,0.140457 -0.0732,0.284081 -0.0742,0.429689 -10e-4,0.145608 0.041,0.300736 0.1582,0.417968 0.0776,0.07762 0.18661,0.09529 0.27344,0.08789 0.0868,-0.0074 0.1641,-0.03437 0.23633,-0.05664 0.0722,-0.02228 0.13982,-0.03924 0.18359,-0.04297 0.0356,-0.003 0.0413,0.0027 0.0508,0.0098 0.005,0.01587 0.0108,0.03608 0.0176,0.06445 0.0164,0.06883 0.0368,0.168714 0.0606,0.294923 0.0475,0.252415 0.10738,0.606989 0.17578,1.029298 0.1368,0.844616 0.30662,1.95934 0.47656,3.074218 0.16994,1.114877 0.33941,2.231374 0.47656,3.078125 0.0686,0.423375 0.12944,0.778385 0.17774,1.035155 0.0242,0.12839 0.0444,0.23219 0.0625,0.3086 0.009,0.0382 0.0188,0.069 0.0273,0.0957 0.004,0.0134 0.008,0.0258 0.0137,0.0391 0.006,0.0133 0.009,0.0262 0.0352,0.0527 0.0776,0.0776 0.18661,0.0953 0.27344,0.0879 0.0868,-0.007 0.16606,-0.0324 0.23828,-0.0547 0.0722,-0.0223 0.13787,-0.0412 0.18164,-0.0449 0.0438,-0.004 0.051,2.4e-4 0.0625,0.0117 -0.006,-0.006 0.0229,0.035 0.0488,0.0977 0.0259,0.0627 0.0574,0.1492 0.0898,0.25586 0.0649,0.21332 0.13771,0.50317 0.2168,0.84375 0.15818,0.68116 0.33612,1.56545 0.50195,2.45313 0.16583,0.88767 0.32074,1.78081 0.43359,2.48437 0.0564,0.35178 0.10296,0.65465 0.13477,0.88672 0.0318,0.23207 0.0469,0.40278 0.0469,0.44531 0,0.26786 -0.0932,1.13423 -0.14062,1.96289 -0.0237,0.41433 -0.0358,0.82136 -0.0176,1.15625 0.009,0.16745 0.0263,0.31769 0.0547,0.44336 0.0284,0.12567 0.0625,0.23046 0.14258,0.31055 0.13318,0.13319 0.31857,0.12793 0.46679,0.10351 0.14823,-0.0244 0.28801,-0.0644 0.38282,-0.0644 v -0.26562 c -0.15718,0 -0.30357,0.0482 -0.42578,0.0684 -0.12222,0.0201 -0.19134,0.0157 -0.23633,-0.0293 -0.0142,-0.0142 -0.0491,-0.0791 -0.0723,-0.18164 -0.0232,-0.10255 -0.0402,-0.2401 -0.0488,-0.39844 -0.0172,-0.31668 -0.006,-0.71748 0.0176,-1.12695 0.0469,-0.81894 0.14258,-1.65446 0.14258,-1.97852 0,-0.0901 -0.0185,-0.24522 -0.0508,-0.48047 -0.0322,-0.23524 -0.0781,-0.5414 -0.13477,-0.89453 -0.11328,-0.70625 -0.26927,-1.60022 -0.43554,-2.49023 -0.16627,-0.89002 -0.3442,-1.77514 -0.50391,-2.46289 -0.0798,-0.34388 -0.15471,-0.63801 -0.22266,-0.86133 -0.034,-0.11166 -0.0665,-0.20578 -0.0977,-0.28125 -0.0312,-0.0755 -0.0532,-0.13136 -0.10547,-0.18359 -0.0776,-0.0776 -0.18661,-0.0953 -0.27344,-0.0879 -0.0868,0.007 -0.16411,0.0344 -0.23633,0.0566 -0.0722,0.0223 -0.13982,0.0412 -0.18359,0.0449 -0.0357,0.003 -0.0413,-0.005 -0.0508,-0.0117 -0.005,-0.0159 -0.0109,-0.0343 -0.0176,-0.0625 -0.0164,-0.0688 -0.0368,-0.17067 -0.0606,-0.29688 -0.0475,-0.25241 -0.10738,-0.606986 -0.17578,-1.029293 -0.1368,-0.844616 -0.30663,-1.959343 -0.47656,-3.07422 -0.16994,-1.114878 -0.33941,-2.229422 -0.47656,-3.076171 -0.0686,-0.423375 -0.12944,-0.780335 -0.17774,-1.037111 -0.0242,-0.128386 -0.0444,-0.232185 -0.0625,-0.308594 -0.009,-0.0382 -0.0188,-0.06898 -0.0273,-0.0957 -0.004,-0.01336 -0.008,-0.0258 -0.0137,-0.03906 -0.006,-0.01328 -0.009,-0.02619 -0.0352,-0.05273 -0.0776,-0.07762 -0.18661,-0.09529 -0.27344,-0.08789 -0.0868,0.0074 -0.16606,0.03242 -0.23828,0.05469 -0.0722,0.02228 -0.13786,0.04119 -0.18164,0.04492 -0.0438,0.0037 -0.051,-2.49e-4 -0.0625,-0.01172 -0.061,-0.06095 -0.0808,-0.127664 -0.0801,-0.228515 7.9e-4,-0.100851 0.0286,-0.228603 0.0645,-0.365234 0.0717,-0.273264 0.18445,-0.593995 0.0391,-0.884766 -0.64079,-1.281576 -0.85259,-2.461025 -1.51172,-3.779295 -0.3232,-0.646396 -0.16467,-1.592363 0.0117,-2.562501 0.17639,-0.970139 0.37064,-1.963798 -0.0117,-2.728518 -1.07873,-2.157473 -1.16888,-4.607282 -2.26758,-6.804686 -0.11763,-0.235263 -0.14087,-0.634585 -0.10156,-1.107422 0.0393,-0.472839 0.13465,-1.016614 0.22266,-1.556641 0.088,-0.540026 0.16793,-1.075751 0.17187,-1.539063 0.004,-0.463312 -0.061,-0.86763 -0.31641,-1.123045 -0.0776,-0.07762 -0.1866,-0.09529 -0.27343,-0.08789 -0.0868,0.0074 -0.16606,0.03437 -0.23828,0.05664 -0.0722,0.02228 -0.13787,0.04119 -0.18164,0.04492 -0.0438,0.0037 -0.051,-0.0021 -0.0625,-0.01368 -0.11072,-0.110717 -0.15751,-0.345921 -0.13868,-0.666017 0.0188,-0.320093 0.0951,-0.70979 0.17383,-1.103516 0.0787,-0.393724 0.15915,-0.791385 0.17969,-1.140624 0.0205,-0.34924 -0.0106,-0.66488 -0.21484,-0.869141 -0.0776,-0.07762 -0.18661,-0.09529 -0.27344,-0.08789 -0.0868,0.0074 -0.16606,0.03242 -0.23828,0.05469 -0.0722,0.02228 -0.13787,0.04119 -0.18164,0.04492 -0.0438,0.0037 -0.053,-2.48e-4 -0.0645,-0.01172 0.0223,0.02231 0.0101,0.01183 0.002,-0.0098 -0.008,-0.02159 -0.0195,-0.05554 -0.0312,-0.09961 -0.0234,-0.08813 -0.0518,-0.215471 -0.082,-0.373046 -0.0605,-0.315148 -0.13147,-0.753777 -0.20898,-1.277345 -0.15502,-1.047136 -0.33507,-2.431346 -0.50586,-3.845703 -0.17079,-1.414354 -0.33218,-2.860095 -0.45117,-4.029297 -0.119,-1.169199 -0.19531,-2.073934 -0.19531,-2.367185 0,-0.383466 0.19449,-0.592143 0.55664,-0.750001 0.36215,-0.157861 0.88761,-0.231608 1.45898,-0.269531 0.57137,-0.03792 1.19053,-0.04364 1.75586,-0.08203 0.56533,-0.0384 1.07529,-0.105026 1.44727,-0.291015 0.54721,-0.273603 1.0115,-0.828228 1.40234,-1.419921 0.39084,-0.591695 0.70657,-1.225645 0.92578,-1.664062 0.46899,-0.937993 0.45436,-2.518392 0.34375,-4.13086 -0.1106,-1.612469 -0.33008,-3.253939 -0.33008,-4.242189 0,-0.2208 0.0842,-0.507577 0.13086,-0.791014 0.0467,-0.283438 0.0524,-0.592178 -0.16992,-0.814454 -0.22017,-0.22017 -0.52511,-0.315661 -0.80859,-0.410157 -0.28349,-0.09449 -0.54532,-0.189849 -0.70313,-0.347655 0.0277,0.02775 -0.009,-0.01728 -0.0293,-0.08789 -0.02,-0.07061 -0.0425,-0.173199 -0.0664,-0.298828 -0.0479,-0.251259 -0.10192,-0.599692 -0.16211,-1.013672 -0.12039,-0.827963 -0.26631,-1.919216 -0.44531,-3.044923 -0.17901,-1.125704 -0.39029,-2.285323 -0.64453,-3.253907 -0.25425,-0.968583 -0.53548,-1.742507 -0.91993,-2.126953 -0.0776,-0.07762 -0.1866,-0.09529 -0.27343,-0.08789 -0.0868,0.0074 -0.16606,0.03242 -0.23828,0.05469 -0.0722,0.02227 -0.13787,0.04119 -0.18165,0.04492 -0.0438,0.0037 -0.051,-2.47e-4 -0.0625,-0.01172 -0.17521,-0.175215 -0.28291,-0.578411 -0.32031,-1.101562 -0.0374,-0.523152 -0.0164,-1.159376 0.004,-1.800782 0.0203,-0.641405 0.0393,-1.287818 -0.008,-1.841797 -0.0471,-0.553978 -0.15065,-1.023695 -0.43164,-1.304687 -0.20132,-0.201315 -0.35376,-0.318794 -0.49024,-0.378906 -0.0682,-0.03006 -0.13534,-0.04612 -0.20312,-0.03906 -0.0678,0.0071 -0.13211,0.0419 -0.17383,0.08789 -0.0834,0.09199 -0.0995,0.204632 -0.10938,0.316406 -0.008,0.08716 -0.004,0.17289 -0.002,0.255859 -0.0255,-0.04207 -0.0291,-0.03917 -0.0605,-0.0957 -0.10739,-0.192854 -0.25303,-0.474808 -0.44922,-0.867187 -0.08,-0.159992 -0.0151,-0.418309 0.0586,-0.699219 0.0369,-0.140455 0.0732,-0.284079 0.0742,-0.429687 0.001,-0.145609 -0.041,-0.300737 -0.15821,-0.417969 -0.0437,-0.04372 -0.0768,-0.05698 -0.13672,-0.08984 -0.0599,-0.03286 -0.13682,-0.07337 -0.23242,-0.119141 -0.19118,-0.09154 -0.4521,-0.207397 -0.76172,-0.335937 -0.61924,-0.25708 -1.4354,-0.562766 -2.28906,-0.822266 -0.85366,-0.2595 -1.74442,-0.471518 -2.51367,-0.535156 -0.76925,-0.06364 -1.43068,0.0088 -1.8125,0.390625 -0.22017,0.220169 -0.31566,0.525111 -0.41016,0.808594 -0.0945,0.283482 -0.1879,0.545319 -0.3457,0.703125 -0.20521,0.205212 -0.61762,0.278801 -1.05859,0.341797 -0.44098,0.063 -0.91023,0.115306 -1.20899,0.414062 -0.10976,0.109768 -0.15798,0.270264 -0.22265,0.480469 -0.0647,0.210205 -0.12646,0.46286 -0.18946,0.714844 -0.063,0.251984 -0.12618,0.503855 -0.1875,0.703125 -0.0613,0.199269 -0.14002,0.35487 -0.15625,0.371094 -0.20725,0.207254 -0.63155,0.331165 -1.08203,0.521484 -0.45048,0.190319 -0.93134,0.46425 -1.21094,1.023437 -0.14538,0.290771 -0.0326,0.611504 0.0391,0.884766 0.0358,0.136631 0.0657,0.264384 0.0664,0.365234 8e-4,0.100851 -0.0191,0.167569 -0.0801,0.228516 -0.21326,0.213259 -0.74362,0.336228 -1.42773,0.345703 -0.68411,0.0095 -1.51721,-0.07931 -2.3418,-0.214844 -0.82458,-0.135531 -1.64203,-0.316965 -2.30077,-0.488281 -0.65875,-0.171316 -1.16996,-0.339858 -1.33789,-0.423828 -0.15935,-0.07967 -0.350875,-0.07786 -0.566412,-0.06055 -0.215538,0.01731 -0.453626,0.05783 -0.685546,0.09375 -0.231921,0.03592 -0.457341,0.06702 -0.63672,0.06836 -0.17938,0.0013 -0.301887,-0.03431 -0.343749,-0.07617 -0.0084,-0.0084 -0.105141,-0.117605 -0.238282,-0.273438 -0.133143,-0.155832 -0.312615,-0.369703 -0.523438,-0.61914 -0.421648,-0.498875 -0.967274,-1.145003 -1.511718,-1.789063 -0.544444,-0.64406 -1.087924,-1.28446 -1.50586,-1.769531 -0.208968,-0.242536 -0.386329,-0.447286 -0.517578,-0.59375 -0.06562,-0.07323 -0.120602,-0.130593 -0.16211,-0.173828 -0.02074,-0.02162 -0.03713,-0.04007 -0.05273,-0.05469 -0.01561,-0.01461 -0.01818,-0.02276 -0.05859,-0.04297 -0.403464,-0.201731 -0.867492,-0.04557 -1.279298,0.0625 -0.205904,0.05404 -0.401989,0.100372 -0.564454,0.101563 -0.162465,0.0012 -0.283178,-0.03513 -0.38867,-0.140625 -0.01146,-0.01147 -0.01741,-0.01873 -0.01368,-0.0625 0.0037,-0.04377 0.02265,-0.109419 0.04492,-0.181641 0.02228,-0.07222 0.04924,-0.151451 0.05664,-0.238281 0.0074,-0.08683 -0.01027,-0.195819 -0.08789,-0.273437 -0.509807,-0.509807 -1.66886,-1.077098 -2.890626,-1.628907 -1.221767,-0.551809 -2.500553,-1.074496 -3.191407,-1.419922 -0.79647,-0.398235 -2.257504,-0.526263 -4.089844,-0.52539 -1.832338,8.73e-4 -4.028133,0.142102 -6.249998,0.330078 -4.443733,0.375952 -9.000287,0.9375 -10.886721,0.9375 -0.409427,0 -1.41837,-0.134528 -2.380858,-0.203125 -0.481246,-0.0343 -0.954075,-0.05169 -1.347656,-0.02539 -0.393583,0.0263 -0.711708,0.07889 -0.900393,0.267579 -0.07762,0.07762 -0.09725,0.186606 -0.08984,0.273437 0.0074,0.08683 0.03437,0.16606 0.05664,0.238282 0.02228,0.07222 0.04119,0.137865 0.04492,0.18164 0.0027,0.03139 -0.0026,0.03579 -0.0078,0.04492 -0.01408,0.0036 -0.02609,0.0067 -0.04688,0.01172 -0.06441,0.01549 -0.159355,0.03732 -0.279299,0.06445 -0.239884,0.05426 -0.580451,0.129845 -0.990232,0.220704 -0.819563,0.181717 -1.912229,0.423348 -3.017578,0.677734 -1.10535,0.254386 -2.222429,0.520417 -3.091797,0.75 -0.434684,0.114791 -0.807823,0.221353 -1.087893,0.3125 -0.140033,0.04557 -0.257648,0.08617 -0.349607,0.125 -0.09196,0.03883 -0.155104,0.06526 -0.212891,0.123047 -0.07762,0.07762 -0.09529,0.186607 -0.08789,0.273437 0.0074,0.08683 0.03242,0.16606 0.05469,0.238282 0.02228,0.07222 0.04119,0.137866 0.04492,0.18164 0.0037,0.04377 -2.46e-4,0.05103 -0.01172,0.0625 0.01942,-0.01941 0.0027,-3.17e-4 -0.02734,0.01172 -0.03003,0.01205 -0.07557,0.02666 -0.130861,0.04297 -0.110588,0.03263 -0.264374,0.07088 -0.443359,0.111328 -0.357971,0.08089 -0.821111,0.171625 -1.279298,0.25586 -0.458187,0.08423 -0.912074,0.161863 -1.251953,0.216796 -0.169939,0.02747 -0.311308,0.04851 -0.410157,0.0625 -0.02387,0.0034 -0.0361,0.0054 -0.05469,0.0078 -0.02368,-0.04437 -0.0415,-0.0897 -0.0254,-0.1875 0.02013,-0.122215 0.07031,-0.270561 0.07031,-0.427735 v -0.08203 l -1.586298,-0.79107 C 44.371193,19.61725 43.609494,19.430089 42.9585,19.246843 42.307509,19.063598 41.773323,18.881978 41.415532,18.524187 41.18644,18.295095 41.09042,17.859895 41.09522,17.297625 c 0.0048,-0.562271 0.105965,-1.240221 0.218749,-1.931641 0.112787,-0.69142 0.236723,-1.396185 0.289063,-2.025391 0.05234,-0.629205 0.03892,-1.183879 -0.16211,-1.585937 C 41.099506,11.071823 40.050208,9.1862656 38.944829,7.4597339 38.392141,6.5964678 37.826335,5.7736337 37.325688,5.1628588 37.075368,4.8574713 36.842609,4.6055941 36.630376,4.4245775 36.418143,4.2435608 36.230022,4.1237962 36.030767,4.1237962 c -0.452673,0 -1.826329,-0.1536838 -3.146483,-0.2304687 -0.66008,-0.038393 -1.310074,-0.058493 -1.839844,-0.029297 z"
       id="path151" />
    <path
       style="color:#000000;font-style:normal;font-variant:normal;font-weight:normal;font-stretch:normal;font-size:medium;line-height:normal;font-family:sans-serif;font-variant-ligatures:normal;font-variant-position:normal;font-variant-caps:normal;font-variant-numeric:normal;font-variant-alternates:normal;font-variant-east-asian:normal;font-feature-settings:normal;font-variation-settings:normal;text-indent:0;text-align:start;text-decoration:none;text-decoration-line:none;text-decoration-style:solid;text-decoration-color:#000000;letter-spacing:normal;word-spacing:normal;text-transform:none;writing-mode:lr-tb;direction:ltr;text-orientation:mixed;dominant-baseline:auto;baseline-shift:baseline;text-anchor:start;white-space:normal;shape-padding:0;shape-margin:0;inline-size:0;clip-rule:nonzero;display:inline;overflow:visible;visibility:visible;opacity:1;isolation:auto;mix-blend-mode:normal;color-interpolation:sRGB;color-interpolation-filters:linearRGB;solid-color:#000000;solid-opacity:1;vector-effect:none;fill:#fffffe;fill-opacity:1;fill-rule:nonzero;stroke:#ffffff;stroke-width:0.499999;stroke-linecap:butt;stroke-linejoin:miter;stroke-miterlimit:4;stroke-dasharray:none;stroke-dashoffset:0;stroke-opacity:0;color-rendering:auto;image-rendering:auto;shape-rendering:auto;text-rendering:auto;enable-background:accumulate;stop-color:#000000;stop-opacity:1"
       d="m 27.102752,16.950191 c -0.264888,0.0146 -0.500883,0.0414 -0.695312,0.0859 -0.194432,0.0445 -0.350094,0.102039 -0.458986,0.210929 -0.07762,0.0776 -0.09529,0.18661 -0.08789,0.273441 0.0074,0.0868 0.03242,0.16606 0.05469,0.23828 0.02228,0.0722 0.04119,0.13787 0.04492,0.18164 0.0037,0.0438 -2.46e-4,0.051 -0.01172,0.0625 -0.313084,0.31309 -1.088647,0.72051 -1.861328,1.11524 -0.772681,0.39473 -1.541699,0.77802 -1.917969,1.15429 -0.02813,0.0281 -0.02373,0.0266 -0.03711,0.0449 -0.01337,0.0183 -0.03164,0.0442 -0.05273,0.0742 -0.04219,0.06 -0.09848,0.141859 -0.166015,0.240239 -0.135069,0.19676 -0.311576,0.45685 -0.490235,0.722661 -0.178658,0.265799 -0.359888,0.537029 -0.503906,0.75781 -0.144018,0.22078 -0.245594,0.37791 -0.287109,0.460939 -0.145385,0.29077 -0.03265,0.6115 0.03906,0.884761 0.03586,0.13663 0.06371,0.264379 0.06445,0.365239 7.41e-4,0.100851 -0.01718,0.16756 -0.07812,0.22851 -0.205212,0.20521 -0.619575,0.276851 -1.060547,0.33984 -0.440973,0.063 -0.910229,0.11726 -1.208985,0.41602 -0.122162,0.12216 -0.151643,0.28927 -0.138672,0.44141 0.01297,0.152131 0.06288,0.302821 0.107422,0.447261 0.04454,0.14445 0.08445,0.28155 0.09375,0.39063 0.0093,0.109069 -0.0065,0.176399 -0.0625,0.232419 -0.01147,0.0115 -0.01872,0.0154 -0.0625,0.0117 -0.04377,-0.004 -0.109419,-0.0226 -0.18164,-0.0449 -0.07222,-0.0223 -0.151451,-0.0473 -0.238282,-0.0547 -0.08683,-0.007 -0.195819,0.0103 -0.273437,0.0879 -0.298757,0.29876 -0.351066,0.768011 -0.414063,1.208981 -0.063,0.44098 -0.136585,0.85339 -0.341796,1.0586 -0.01147,0.0115 -0.01873,0.0155 -0.0625,0.0117 -0.04378,-0.004 -0.10942,-0.0227 -0.181641,-0.0449 -0.07222,-0.0223 -0.151451,-0.0473 -0.238281,-0.0547 -0.08683,-0.007 -0.19582,0.0103 -0.273438,0.0879 -0.200557,0.20056 -0.310849,0.5743 -0.416016,1.10937 -0.105166,0.53508 -0.18789,1.22838 -0.251953,2.033211 -0.128125,1.60965 -0.184338,3.66693 -0.203125,5.775389 -0.03757,4.216911 0.07617,8.642973 0.07617,10.074223 0,1.626979 0.285518,5.39686 0.427735,9.052729 0.07111,1.827941 0.1059,3.626411 0.05273,5.105469 -0.0531,1.477272 -0.205254,2.644751 -0.464844,3.16602 -0.0018,2.62e-4 -0.0031,7.94e-4 -0.01563,0 -0.03438,-0.0021 -0.104163,-0.0199 -0.179687,-0.0449 -0.07552,-0.0249 -0.157612,-0.0545 -0.248047,-0.0664 -0.09043,-0.01191 -0.206514,-0.0021 -0.289063,0.0801 -0.122162,0.12216 -0.151643,0.289271 -0.138671,0.441401 0.01297,0.15213 0.06092,0.302819 0.105468,0.447271 0.04454,0.144438 0.0864,0.283498 0.0957,0.392578 0.0093,0.109072 -0.0065,0.17445 -0.0625,0.23046 -0.855217,0.85522 -2.114766,1.36086 -3.023437,2.26954 -0.109781,0.109781 -0.118114,0.259749 -0.109375,0.408202 0.0087,0.148439 0.04074,0.309329 0.07226,0.466788 0.03152,0.15747 0.06329,0.31042 0.07031,0.429692 0.007,0.119279 -0.01689,0.190719 -0.0332,0.207028 -0.205212,0.205221 -0.617622,0.276849 -1.058594,0.339849 -0.440972,0.063 -0.9102276,0.117261 -1.2089836,0.416013 -0.3711066,0.37111 -0.3845176,0.999199 -0.4160157,1.59766 -0.0315,0.598458 -0.08099,1.166929 -0.3398438,1.425778 -0.05602,0.056 -0.123344,0.0718 -0.2324222,0.0625 -0.1090758,-0.009 -0.246181,-0.0512 -0.3906239,-0.0957 -0.1444429,-0.0445 -0.2951332,-0.0925 -0.447266,-0.105471 -0.152133,-0.01299 -0.319243,0.01651 -0.4414062,0.13867 -0.1617768,0.16178 -0.2183159,0.372862 -0.2167967,0.580081 0.00151,0.20723 0.05238,0.417229 0.1074219,0.626959 0.1100799,0.419449 0.220326,0.82301 0.08398,1.095701 0.018939,-0.0379 0.0041,-0.009 -0.03125,0.01371 -0.03531,0.0222 -0.08846,0.0526 -0.1523439,0.084 -0.1277739,0.0627 -0.298799,0.13602 -0.4726559,0.210931 -0.173858,0.0749 -0.3511661,0.150209 -0.4980472,0.21875 -0.146881,0.0685 -0.251596,0.112929 -0.3320309,0.19336 -0.145751,0.145759 -0.2080011,0.325599 -0.2324219,0.505859 -0.024421,0.180261 -0.016679,0.366491 -0.023439,0.556639 -0.01352,0.380312 -0.06856,0.773641 -0.4999998,1.205082 -0.01147,0.01151 -0.02068,0.0154 -0.06445,0.01169 -0.04377,-0.004 -0.1094187,-0.02259 -0.1816406,-0.0449 -0.07222,-0.0223 -0.1514505,-0.0473 -0.2382811,-0.0547 -0.08683,-0.007 -0.1958203,0.01029 -0.2734382,0.0879 -0.1850147,0.185021 -0.3391522,0.494009 -0.4941401,0.865241 -0.1549878,0.371229 -0.3022481,0.80291 -0.4374999,1.22265 -0.1352521,0.419748 -0.2581841,0.82659 -0.361329,1.140629 -0.05157,0.15702 -0.09887,0.29182 -0.138671,0.39062 -0.0398,0.0988 -0.08687,0.16696 -0.08008,0.160161 -0.1897078,0.189709 -0.3280418,0.290859 -0.4082029,0.326167 -0.04008,0.0177 -0.06206,0.0182 -0.06836,0.0176 -0.0063,-5.29e-4 -0.00151,0.003 -0.0059,-0.0021 -0.0087,-0.01 -0.03521,-0.0738 -0.04297,-0.162108 -0.0078,-0.0883 -0.0035,-0.195294 0,-0.294923 0.0035,-0.0996 0.01089,-0.1851 -0.0039,-0.267581 -0.0037,-0.02061 -0.0093,-0.0415 -0.023439,-0.0684 -0.014171,-0.0268 -0.04451,-0.0653 -0.09375,-0.0801 -0.04924,-0.01479 -0.09547,7.93e-4 -0.1230472,0.01561 -0.02757,0.01479 -0.04512,0.0309 -0.0625,0.0488 -0.06954,0.0717 -0.137123,0.181671 -0.2480471,0.380873 -0.110925,0.199181 -0.258006,0.482798 -0.45507803,0.876948 -0.133009,0.26601 -0.235391,0.745432 -0.355469,1.21289 -0.06004,0.23373 -0.1222,0.461941 -0.1875,0.64648 -0.0653,0.184539 -0.141827,0.32738 -0.189453,0.375002 -0.0035,0.004 -0.01674,0.01 -0.07227,0.0021 -0.05552,-0.008 -0.13449402,-0.0319 -0.21484401,-0.0586 -0.08035,-0.0267 -0.15897402,-0.0568 -0.25,-0.0605 -0.04551,-0.0021 -0.09918,0.0021 -0.15039105,0.0332 -0.05122,0.0307 -0.08947,0.0883 -0.103515,0.144531 -0.254837,1.01935 -0.0039,2.0701 -0.0039,3.05665 h 0.265625 c 0,-1.020602 -0.228111,-2.036901 -0.0039,-2.9668 0.0327,0.004 0.09216,0.0191 0.16406202,0.043 0.07873,0.02609 0.16639299,0.0568 0.25976594,0.0703 0.09337,0.01349 0.211236,0.007 0.296875,-0.0781 0.110762,-0.11076 0.1796541,-0.273859 0.2500001,-0.472659 0.07035,-0.19879 0.1345949,-0.431589 0.195312,-0.66797 0.121436,-0.472739 0.23987003,-0.96802 0.33593793,-1.16015 0.1961901,-0.39238 0.3418231,-0.674339 0.449219,-0.867191 0.03073,-0.0552 0.03353,-0.0523 0.05859,-0.0938 -0.0024,0.0824 -0.0057,0.16741 0.0019,0.25391 0.0098,0.111768 0.02789,0.22442 0.1113279,0.3164 0.04172,0.046 0.1040881,0.0808 0.1718752,0.0879 0.06779,0.007 0.134884,-0.009 0.2031248,-0.0391 0.1364811,-0.0601 0.2889192,-0.179541 0.4902341,-0.380859 0.06683,-0.0668 0.09286,-0.141132 0.1367189,-0.25 0.04386,-0.108871 0.09212,-0.24666 0.144531,-0.406252 0.1048282,-0.319159 0.2270371,-0.72386 0.361328,-1.140618 0.1342911,-0.416762 0.281854,-0.844352 0.4316412,-1.203132 0.149787,-0.35877 0.308845,-0.65064 0.4375,-0.779288 0.01147,-0.01151 0.02068,-0.01551 0.06445,-0.0117 0.04377,0.004 0.1094195,0.0226 0.1816412,0.0449 0.07222,0.0223 0.1514512,0.0473 0.2382811,0.0547 0.08683,0.007 0.1938661,-0.01029 0.2714842,-0.0879 0.4829937,-0.483002 0.563779,-0.979303 0.5781249,-1.382813 0.0072,-0.201758 0.00151,-0.381662 0.021479,-0.529299 0.02,-0.147648 0.059,-0.25822 0.156251,-0.355471 0.00159,-0.0021 0.117348,-0.0751 0.2578121,-0.14062 0.1404639,-0.0656 0.3177839,-0.14165 0.492187,-0.216797 0.174404,-0.0752 0.3454349,-0.149583 0.4824219,-0.216803 0.06849,-0.0336 0.128615,-0.0648 0.1777352,-0.0957 0.04912,-0.0309 0.08959,-0.0464 0.1269529,-0.12109 0.2017299,-0.40346 0.04362,-0.867489 -0.06445,-1.2793 -0.05404,-0.205898 -0.09842,-0.400028 -0.09961,-0.562499 -0.00119,-0.162459 0.03318,-0.28513 0.1386719,-0.39062 0.05602,-0.056 0.123345,-0.0718 0.2324221,-0.0625 0.1090758,0.009 0.248135,0.0512 0.3925779,0.0957 0.144443,0.0445 0.2951322,0.0925 0.4472652,0.105471 0.1521328,0.01299 0.3192439,-0.01651 0.441406,-0.138681 0.3711067,-0.3711 0.3845187,-1.001141 0.4160157,-1.59961 0.0315,-0.598461 0.08099,-1.164971 0.339845,-1.423821 0.205211,-0.205219 0.6176206,-0.27881 1.0585926,-0.341799 0.440973,-0.063 0.910229,-0.117261 1.208985,-0.416021 0.109781,-0.109778 0.118114,-0.25976 0.109374,-0.408199 -0.0087,-0.148439 -0.0427,-0.30933 -0.07422,-0.466799 -0.03152,-0.157461 -0.06134,-0.310412 -0.06836,-0.429691 -0.007,-0.119269 0.01689,-0.19072 0.0332,-0.207031 0.855217,-0.85521 2.114766,-1.3589 3.023437,-2.26757 0.122163,-0.122168 0.151644,-0.289279 0.138672,-0.441409 -0.01297,-0.15213 -0.06092,-0.302821 -0.105469,-0.44727 -0.04454,-0.144439 -0.0864,-0.281541 -0.0957,-0.390621 -0.0093,-0.109079 0.0065,-0.176411 0.0625,-0.23242 0.0065,-0.007 0.016,-0.01249 0.06641,-0.006 0.0504,0.007 0.124067,0.0312 0.201172,0.0566 0.0771,0.02551 0.156003,0.0537 0.246092,0.0586 0.04505,0.0021 0.09645,-0.003 0.146486,-0.0254 0.05004,-0.02281 0.09534,-0.0657 0.121093,-0.117189 0.309219,-0.618443 0.440548,-1.788351 0.49414,-3.279302 0.05359,-1.49094 0.01655,-3.29375 -0.05469,-5.125 -0.142474,-3.6625 -0.425781,-7.44715 -0.425781,-9.042969 0,-1.44522 -0.113688,-5.861772 -0.07617,-10.072262 0.01876,-2.10525 0.07397,-4.157861 0.201173,-5.755861 0.0636,-0.79901 0.146231,-1.485879 0.248047,-2.00391 0.101815,-0.51803 0.241421,-0.87033 0.34375,-0.972659 0.01147,-0.0115 0.02068,-0.0154 0.06445,-0.0117 0.04378,0.004 0.109419,0.0226 0.181641,0.0449 0.07222,0.0223 0.149497,0.0473 0.236328,0.0547 0.08683,0.007 0.19582,-0.0103 0.273438,-0.0879 0.298756,-0.29875 0.353019,-0.76801 0.416015,-1.20898 0.063,-0.44097 0.134632,-0.85338 0.339844,-1.058602 0.01147,-0.0115 0.02068,-0.0154 0.06445,-0.0117 0.04377,0.004 0.109419,0.0226 0.181641,0.0449 0.07222,0.0223 0.149497,0.0473 0.236328,0.0547 0.08683,0.007 0.195819,-0.0103 0.273437,-0.0879 0.122163,-0.12216 0.151644,-0.28927 0.138672,-0.441399 -0.01297,-0.15214 -0.06092,-0.30282 -0.105469,-0.44727 -0.04454,-0.14444 -0.0864,-0.2835 -0.0957,-0.39258 -0.0093,-0.10907 0.0065,-0.17445 0.0625,-0.23046 0.205212,-0.20522 0.617622,-0.27881 1.058594,-0.341801 0.440972,-0.063 0.910228,-0.115309 1.208984,-0.414059 0.117233,-0.117241 0.159271,-0.27236 0.158204,-0.41797 -0.0011,-0.14561 -0.03736,-0.28924 -0.07422,-0.42969 -0.07372,-0.28091 -0.13859,-0.53923 -0.05859,-0.69922 0.01818,-0.0363 0.12857,-0.21646 0.271484,-0.435551 0.142915,-0.21908 0.323752,-0.490729 0.501953,-0.755859 0.178202,-0.265121 0.353877,-0.52295 0.488282,-0.71875 0.0672,-0.0979 0.12481,-0.17964 0.166015,-0.238281 0.0206,-0.0293 0.03703,-0.0541 0.04883,-0.0703 0.0118,-0.0162 0.03171,-0.0376 0.0098,-0.0156 0.307304,-0.30731 1.080731,-0.71069 1.853516,-1.10547 0.772784,-0.39478 1.546722,-0.78111 1.92773,-1.16211 0.07762,-0.0776 0.0953,-0.18661 0.08789,-0.27344 -0.0074,-0.0868 -0.03437,-0.16411 -0.05664,-0.23633 -0.02228,-0.0722 -0.03924,-0.13786 -0.04297,-0.18164 -0.0037,-0.0438 2.46e-4,-0.053 0.01172,-0.0645 0.0441,-0.0441 0.160888,-0.10146 0.332031,-0.14063 0.171143,-0.0392 0.392787,-0.064 0.648438,-0.0781 0.511297,-0.0282 1.155401,-0.0108 1.810547,0.0273 1.310285,0.0762 2.653299,0.23047 3.162109,0.23047 0.07384,0 0.235402,0.0742 0.427733,0.23828 0.192334,0.16405 0.419664,0.40692 0.664062,0.70508 0.488805,0.59633 1.050065,1.41312 1.599616,2.27149 1.0991,1.71673 2.15084,3.60832 2.482421,4.271481 0.15762,0.31525 0.18556,0.83473 0.134768,1.445309 -0.0508,0.61058 -0.173929,1.31202 -0.28711,2.00586 -0.113178,0.69385 -0.215649,1.37924 -0.22071,1.9707 -0.005,0.59147 0.0823,1.09991 0.398441,1.41602 0.41782,0.41781 0.998691,0.60592 1.65625,0.79102 0.657571,0.18509 1.397,0.36646 2.156251,0.74609 l 1.427739,0.71289 c -0.01111,0.0895 -0.0331,0.18965 -0.0527,0.30859 -0.02439,0.14823 -0.0297,0.33166 0.10351,0.46485 1.01e-4,1e-4 0.0467,0.0312 0.0469,0.0312 2.09e-4,8e-5 0.02119,0.006 0.02151,0.006 5.29e-4,1.2e-4 0.0185,0.002 0.02339,0.002 0.01,4.5e-4 0.01529,3.17e-4 0.02151,0 0.0123,-6.35e-4 0.02389,-2.91e-4 0.0391,-0.002 0.0302,-0.003 0.0702,-0.0104 0.1211,-0.0176 0.101859,-0.0144 0.24498,-0.0349 0.41602,-0.0625 0.342059,-0.0553 0.797539,-0.13414 1.257811,-0.21875 0.460258,-0.0846 0.924808,-0.17551 1.289058,-0.25781 0.182131,-0.0411 0.338661,-0.0797 0.45898,-0.11524 0.0602,-0.0178 0.11157,-0.0356 0.1543,-0.0527 0.0427,-0.0171 0.0745,-0.0256 0.117192,-0.0684 0.0776,-0.0776 0.0953,-0.18661 0.0879,-0.27344 -0.007,-0.0868 -0.0324,-0.1641 -0.0547,-0.23632 -0.0223,-0.0722 -0.0412,-0.13787 -0.0449,-0.18164 -0.004,-0.0438 2.41e-4,-0.053 0.0117,-0.0644 -0.005,0.005 0.0484,-0.0324 0.128899,-0.0664 0.0805,-0.034 0.192368,-0.073 0.328129,-0.11719 0.27151,-0.0884 0.64023,-0.1945 1.072261,-0.3086 0.864071,-0.22818 1.97998,-0.49397 3.083988,-0.74804 1.104011,-0.25408 2.196092,-0.49602 3.015621,-0.67774 0.40977,-0.0909 0.75125,-0.1662 0.99219,-0.2207 0.12047,-0.0273 0.2164,-0.0503 0.283199,-0.0664 0.0334,-0.008 0.0583,-0.0142 0.0781,-0.0195 0.01,-0.003 0.01881,-0.005 0.0273,-0.008 0.004,-0.001 0.009,-0.001 0.01561,-0.004 0.003,-0.001 0.0132,-0.008 0.0137,-0.008 5.3e-4,-2.3e-4 0.033,-0.0233 0.0332,-0.0234 0.0776,-0.0776 0.0953,-0.18661 0.0879,-0.27344 -0.007,-0.0868 -0.0344,-0.1641 -0.0566,-0.23633 -0.0223,-0.0722 -0.0412,-0.13982 -0.0449,-0.18359 -0.004,-0.0438 0.0021,-0.051 0.01371,-0.0625 0.084,-0.084 0.359029,-0.16658 0.73047,-0.19141 0.371448,-0.0248 0.835279,-0.008 1.31055,0.0254 0.95055,0.0678 1.935919,0.20508 2.40039,0.20508 1.9383,0 6.471459,-0.56409 10.908199,-0.93945 2.218381,-0.18768 4.409721,-0.32726 6.228519,-0.32813 1.818802,-8.73e-4 3.273822,0.14961 3.9707,0.49805 0.71206,0.35603 1.985561,0.87284 3.201181,1.42188 1.215609,0.54903 2.379501,1.14317 2.812499,1.57617 0.01151,0.0115 0.01551,0.0207 0.0117,0.0644 -0.004,0.0438 -0.02259,0.10942 -0.0449,0.18164 -0.0223,0.0722 -0.0492,0.1495 -0.0566,0.23633 -0.007,0.0868 0.0122,0.19582 0.0898,0.27343 0.161772,0.16178 0.370901,0.21832 0.57812,0.2168 0.207222,-10e-4 0.419182,-0.0543 0.628901,-0.10937 0.417971,-0.10969 0.817219,-0.21616 1.089851,-0.082 0.01,0.009 0.02609,0.0233 0.0449,0.043 0.0377,0.0392 0.0898,0.0979 0.154299,0.16992 0.12904,0.144 0.305279,0.34602 0.51367,0.58789 0.41678,0.48373 0.95966,1.12376 1.5039,1.76758 0.54424,0.64381 1.089821,1.29184 1.511721,1.79101 0.210949,0.24959 0.391628,0.46258 0.525388,0.61914 0.133771,0.15657 0.21069,0.24585 0.25196,0.28711 0.132861,0.13286 0.325911,0.15585 0.533202,0.1543 0.20729,-0.002 0.43952,-0.034 0.67383,-0.0703 0.23431,-0.0363 0.470088,-0.0759 0.66797,-0.0918 0.197868,-0.0159 0.358859,-10e-4 0.42773,0.0332 0.225309,0.11266 0.722289,0.27006 1.388669,0.44336 0.66639,0.1733 1.490059,0.35508 2.324229,0.49219 0.834173,0.1371 1.678663,0.23053 2.388683,0.2207 0.71002,-0.01 1.29335,-0.10586 1.61132,-0.42383 0.11724,-0.11723 0.15731,-0.27236 0.15625,-0.41797 -0.001,-0.14561 -0.0374,-0.28923 -0.0742,-0.42969 -0.0737,-0.28091 -0.1386,-0.53922 -0.0586,-0.69921 0.2413,-0.4826 0.64864,-0.71699 1.07813,-0.89844 0.42949,-0.18145 0.87831,-0.29239 1.166,-0.58008 0.10977,-0.10977 0.15603,-0.26831 0.22071,-0.47852 0.0647,-0.2102 0.12841,-0.46481 0.19141,-0.71679 0.063,-0.25199 0.12618,-0.50191 0.1875,-0.70117 0.0613,-0.19927 0.14002,-0.35487 0.15625,-0.3711 0.20521,-0.20521 0.61762,-0.27685 1.0586,-0.33984 0.44096,-0.063 0.91022,-0.11726 1.20898,-0.41602 0.22017,-0.22017 0.31566,-0.52316 0.41016,-0.80664 0.0945,-0.28348 0.18789,-0.54727 0.34569,-0.70508 0.28025,-0.28024 0.86591,-0.37547 1.60351,-0.31445 0.73763,0.061 1.61408,0.26719 2.45704,0.52344 0.84296,0.25624 1.65354,0.56229 2.26563,0.8164 0.30603,0.12706 0.56271,0.24135 0.74804,0.33008 0.0927,0.0444 0.16751,0.0822 0.2207,0.11133 0.0532,0.0292 0.0941,0.0609 0.0781,0.0449 0.0609,0.0609 0.0808,0.12767 0.0801,0.22852 -8e-4,0.10085 -0.0305,0.2286 -0.0664,0.36523 -0.0717,0.27326 -0.18446,0.594 -0.0391,0.88477 0.19707,0.39414 0.34415,0.67776 0.45507,0.87695 0.11093,0.19919 0.17852,0.30919 0.24805,0.38086 0.0174,0.0179 0.0349,0.034 0.0625,0.0488 0.0276,0.0148 0.0738,0.0284 0.12305,0.0137 0.0492,-0.0148 0.0796,-0.0513 0.0938,-0.0781 0.0142,-0.0268 0.0197,-0.0497 0.0234,-0.0703 0.0148,-0.0825 0.007,-0.16601 0.004,-0.26563 -0.004,-0.0996 -0.006,-0.20666 0.002,-0.29492 0.008,-0.0883 0.0323,-0.15249 0.041,-0.16211 0.004,-0.005 -5.3e-4,-10e-4 0.006,-0.002 0.006,-6.61e-4 0.0283,-7e-5 0.0684,0.0176 0.0802,0.0353 0.22046,0.13451 0.41018,0.32422 0.19415,0.19418 0.31032,0.60821 0.35544,1.13867 0.0451,0.53047 0.0281,1.17166 0.008,1.8125 -0.0203,0.64085 -0.0449,1.2827 -0.006,1.82813 0.039,0.54543 0.1302,1.00129 0.39843,1.26953 0.0776,0.0776 0.18661,0.0953 0.27344,0.0879 0.0868,-0.007 0.16411,-0.0344 0.23633,-0.0566 0.0722,-0.0223 0.13787,-0.0392 0.18164,-0.043 0.0438,-0.004 0.053,2.5e-4 0.0644,0.0117 0.29812,0.29811 0.60133,1.05451 0.85157,2.007812 0.25023,0.95331 0.46228,2.105041 0.64062,3.22657 0.17834,1.121508 0.32259,2.212361 0.44336,3.04296 0.0604,0.415308 0.11461,0.765911 0.16406,1.025401 0.0247,0.129738 0.0486,0.236601 0.0723,0.320309 0.0236,0.0837 0.029,0.136391 0.0957,0.203118 0.22017,0.220173 0.52316,0.315664 0.80664,0.41016 0.28348,0.0945 0.54727,0.187891 0.70508,0.345702 0.13408,0.13408 0.14006,0.328509 0.0977,0.585938 -0.0424,0.257432 -0.13672,0.550823 -0.13672,0.83398 0,1.02684 0.22223,2.659081 0.33203,4.259773 0.1098,1.600687 0.0943,3.170849 -0.31836,3.996087 -0.21949,0.43897 -0.52931,1.063115 -0.9082,1.636723 -0.3789,0.573612 -0.82798,1.0927 -1.29883,1.328129 -0.30515,0.152572 -0.79579,0.22606 -1.34961,0.263668 -0.55382,0.0376 -1.17165,0.0434 -1.75391,0.082 -0.58226,0.0386 -1.12844,0.10667 -1.54687,0.28906 -0.41844,0.182399 -0.71485,0.510548 -0.71485,0.994141 0,0.336079 0.0761,1.223147 0.19532,2.394529 0.11921,1.17139 0.28215,2.617298 0.45312,4.03321 0.17098,1.4159 0.35024,2.80034 0.50586,3.851559 0.0778,0.52561 0.14913,0.96901 0.21094,1.291021 0.0309,0.160999 0.0597,0.291809 0.0859,0.39062 0.0131,0.0494 0.0256,0.0896 0.0391,0.125 0.0134,0.0354 0.0201,0.0631 0.0606,0.103521 0.0776,0.0776 0.18465,0.0953 0.27148,0.0879 0.0868,-0.007 0.16606,-0.0324 0.23828,-0.0547 0.0722,-0.0223 0.13787,-0.0412 0.18164,-0.0449 0.0438,-0.004 0.053,2.38e-4 0.0645,0.01169 0.11071,0.11071 0.1575,0.345919 0.13867,0.666009 -0.0188,0.320101 -0.097,0.70979 -0.17578,1.103519 -0.0787,0.393721 -0.15915,0.791382 -0.17969,1.140622 -0.0206,0.349239 0.0125,0.664879 0.2168,0.86914 0.0776,0.0776 0.1866,0.0953 0.27343,0.0879 0.0868,-0.007 0.16411,-0.0324 0.23633,-0.0547 0.0722,-0.0223 0.13787,-0.0412 0.18164,-0.0449 0.0438,-0.004 0.053,2.49e-4 0.0644,0.0117 0.16833,0.168328 0.24394,0.499459 0.24024,0.933598 -0.004,0.434141 -0.0804,0.96044 -0.16797,1.498042 -0.0876,0.537609 -0.18571,1.086678 -0.22656,1.578128 -0.0409,0.49144 -0.0322,0.925902 0.1289,1.24804 1.06564,2.13129 1.15618,4.579921 2.26758,6.802741 0.3232,0.646391 0.16467,1.594311 -0.0117,2.564451 -0.17639,0.970139 -0.37065,1.963798 0.0117,2.728518 0.64079,1.281574 0.85259,2.461024 1.51172,3.779294 0.08,0.16 0.0151,0.41831 -0.0586,0.69922 -0.0369,0.14046 -0.0732,0.28408 -0.0742,0.42969 -0.001,0.14561 0.041,0.30074 0.1582,0.41797 0.0776,0.0776 0.18661,0.0953 0.27344,0.0879 0.0868,-0.007 0.1641,-0.0344 0.23633,-0.0566 0.0722,-0.0223 0.13982,-0.0392 0.18359,-0.043 0.0356,-0.003 0.0413,0.003 0.0508,0.01 0.005,0.0159 0.0108,0.0361 0.0176,0.0645 0.0164,0.0688 0.0368,0.16871 0.0606,0.29491 0.0475,0.25243 0.10737,0.607 0.17577,1.02931 0.1368,0.84462 0.30662,1.95934 0.47656,3.07422 0.16995,1.11488 0.33941,2.23136 0.47657,3.07812 0.0686,0.42338 0.12944,0.77839 0.17773,1.03516 0.0242,0.12839 0.0444,0.23218 0.0625,0.3086 0.009,0.0382 0.0188,0.069 0.0273,0.0957 0.004,0.0134 0.008,0.0258 0.0137,0.0391 0.006,0.0133 0.009,0.0262 0.0352,0.0527 0.0776,0.0776 0.18661,0.0953 0.27344,0.0879 0.0868,-0.007 0.16606,-0.0324 0.23828,-0.0547 0.0722,-0.0223 0.13787,-0.0412 0.18164,-0.0449 0.0438,-0.004 0.051,2.4e-4 0.0625,0.0117 -0.006,-0.006 0.0229,0.035 0.0488,0.0977 0.0259,0.0627 0.0574,0.1492 0.0898,0.25586 0.0649,0.21332 0.13771,0.50317 0.2168,0.84375 0.15818,0.68116 0.33612,1.56546 0.50195,2.45314 0.16583,0.88767 0.32074,1.78081 0.43359,2.48437 0.0564,0.35177 0.10296,0.65465 0.13477,0.88672 0.0318,0.23207 0.0469,0.40277 0.0469,0.44531 0,0.26786 -0.0932,1.13423 -0.14062,1.96288 -0.0237,0.41434 -0.0358,0.82137 -0.0176,1.15626 0.009,0.16744 0.0263,0.31769 0.0547,0.44335 0.0284,0.12568 0.0625,0.23046 0.14257,0.31056 0.13319,0.13319 0.31858,0.12793 0.4668,0.1035 0.14823,-0.0244 0.28801,-0.0644 0.38282,-0.0644 v -0.2656 c -0.15718,0 -0.30358,0.0482 -0.42578,0.0684 -0.12223,0.0201 -0.19135,0.0157 -0.23634,-0.0293 -0.0142,-0.0142 -0.0491,-0.0791 -0.0723,-0.18164 -0.0232,-0.10255 -0.0402,-0.24011 -0.0488,-0.39845 -0.0172,-0.31668 -0.006,-0.71747 0.0176,-1.12694 0.0469,-0.81894 0.14258,-1.65446 0.14258,-1.97853 0,-0.0901 -0.0185,-0.24521 -0.0508,-0.48047 -0.0322,-0.23523 -0.0781,-0.54139 -0.13477,-0.89453 -0.11328,-0.70624 -0.26927,-1.60021 -0.43554,-2.49024 -0.16627,-0.89 -0.3442,-1.77513 -0.50391,-2.46288 -0.0798,-0.34388 -0.15471,-0.63801 -0.22266,-0.86133 -0.034,-0.11166 -0.0665,-0.20578 -0.0977,-0.28125 -0.0312,-0.0755 -0.0532,-0.13136 -0.10547,-0.18359 -0.0776,-0.0776 -0.18661,-0.0953 -0.27344,-0.0879 -0.0868,0.007 -0.16411,0.0344 -0.23633,0.0566 -0.0722,0.0223 -0.13982,0.0412 -0.18359,0.0449 -0.0357,0.003 -0.0413,-0.005 -0.0508,-0.0117 -0.005,-0.0159 -0.0109,-0.0343 -0.0176,-0.0625 -0.0164,-0.0688 -0.0368,-0.17067 -0.0606,-0.29688 -0.0475,-0.25241 -0.10737,-0.60699 -0.17577,-1.02929 -0.1368,-0.84462 -0.30664,-1.95935 -0.47656,-3.07422 -0.16995,-1.11488 -0.33941,-2.22943 -0.47656,-3.07617 -0.0686,-0.42338 -0.12945,-0.78034 -0.17775,-1.03712 -0.0242,-0.12838 -0.0444,-0.23218 -0.0625,-0.30859 -0.009,-0.0382 -0.0188,-0.069 -0.0273,-0.0957 -0.004,-0.0134 -0.008,-0.0258 -0.0137,-0.0391 -0.006,-0.0133 -0.009,-0.0262 -0.0352,-0.0527 -0.0776,-0.0776 -0.18661,-0.0953 -0.27344,-0.0879 -0.0868,0.007 -0.16606,0.0324 -0.23828,0.0547 -0.0722,0.0223 -0.13786,0.0412 -0.18164,0.0449 -0.0438,0.004 -0.051,-2.5e-4 -0.0625,-0.0117 -0.061,-0.061 -0.0808,-0.12766 -0.0801,-0.22851 7.9e-4,-0.10086 0.0286,-0.22861 0.0645,-0.36524 0.0717,-0.27326 0.18445,-0.59399 0.0391,-0.88476 -0.64079,-1.28158 -0.85259,-2.46103 -1.51172,-3.779302 -0.3232,-0.646401 -0.16467,-1.59236 0.0117,-2.5625 0.17639,-0.970142 0.37064,-1.963801 -0.0117,-2.728521 -1.07873,-2.157471 -1.16888,-4.60728 -2.26758,-6.804681 -0.11763,-0.23527 -0.14087,-0.63459 -0.10156,-1.10743 0.0393,-0.472839 0.13465,-1.016608 0.22266,-1.556639 0.088,-0.540019 0.16793,-1.07575 0.17187,-1.53906 0.004,-0.463312 -0.061,-0.867629 -0.31641,-1.12305 -0.0776,-0.0776 -0.1866,-0.0953 -0.27343,-0.0879 -0.0868,0.007 -0.16606,0.0344 -0.23828,0.0566 -0.0722,0.0223 -0.13787,0.0412 -0.18164,0.0449 -0.0438,0.004 -0.051,-0.0021 -0.0625,-0.01371 -0.11072,-0.110709 -0.15751,-0.345919 -0.13868,-0.666009 0.0188,-0.320101 0.0951,-0.70979 0.17383,-1.103522 0.0787,-0.393718 0.15915,-0.791379 0.17969,-1.140618 0.0205,-0.34924 -0.0106,-0.66488 -0.21484,-0.869141 -0.0776,-0.0776 -0.18661,-0.0953 -0.27344,-0.0879 -0.0868,0.007 -0.16606,0.0324 -0.23828,0.0547 -0.0722,0.02231 -0.13787,0.0412 -0.18164,0.0449 -0.0438,0.004 -0.053,-2.49e-4 -0.0645,-0.01169 0.0223,0.0223 0.0101,0.0118 0.002,-0.01 -0.008,-0.02159 -0.0195,-0.0555 -0.0312,-0.0996 -0.0234,-0.0881 -0.0518,-0.215469 -0.082,-0.373047 -0.0605,-0.315153 -0.13147,-0.753782 -0.20898,-1.277342 -0.15501,-1.047139 -0.33507,-2.431349 -0.50585,-3.845711 -0.1708,-1.414346 -0.33219,-2.86009 -0.45118,-4.029289 -0.119,-1.169199 -0.19531,-2.073939 -0.19531,-2.36719 0,-0.383469 0.19449,-0.59214 0.55664,-0.750001 0.36215,-0.157856 0.88761,-0.231606 1.45898,-0.269529 0.57137,-0.0379 1.19053,-0.0436 1.75586,-0.082 0.56533,-0.0384 1.07529,-0.105032 1.44727,-0.291021 0.54721,-0.2736 1.0115,-0.82822 1.40234,-1.419921 0.39084,-0.59169 0.70657,-1.22564 0.92578,-1.664059 0.46899,-0.937991 0.45437,-2.518389 0.34375,-4.130861 -0.1106,-1.612468 -0.33007,-3.253938 -0.33007,-4.242189 0,-0.2208 0.0842,-0.507582 0.13086,-0.791011 0.0467,-0.28344 0.0524,-0.59218 -0.16993,-0.814459 -0.22017,-0.22017 -0.52511,-0.315661 -0.80859,-0.410149 -0.28349,-0.0945 -0.54532,-0.189852 -0.70313,-0.34766 0.0277,0.0277 -0.009,-0.0173 -0.0293,-0.0879 -0.02,-0.0706 -0.0425,-0.173199 -0.0664,-0.298828 -0.0479,-0.251262 -0.10192,-0.599692 -0.16211,-1.013672 -0.12039,-0.827958 -0.2663,-1.919208 -0.44531,-3.044918 -0.179,-1.125712 -0.39029,-2.28532 -0.64453,-3.253912 -0.25424,-0.96858 -0.53548,-1.74251 -0.91993,-2.12695 -0.0776,-0.0776 -0.1866,-0.0953 -0.27343,-0.0879 -0.0868,0.007 -0.16605,0.0324 -0.23828,0.0547 -0.0722,0.0223 -0.13786,0.0412 -0.18164,0.0449 -0.0438,0.004 -0.051,-2.5e-4 -0.0625,-0.0117 -0.17521,-0.17522 -0.28292,-0.57841 -0.32031,-1.10156 -0.0374,-0.52316 -0.0164,-1.15938 0.004,-1.80079 0.0203,-0.6414 0.0393,-1.28781 -0.008,-1.84179 -0.0471,-0.55398 -0.15065,-1.0237 -0.43164,-1.30469 -0.20132,-0.20131 -0.35376,-0.31879 -0.49024,-0.37891 -0.0682,-0.0301 -0.13534,-0.0461 -0.20312,-0.0391 -0.0678,0.007 -0.13211,0.0419 -0.17383,0.0879 -0.0834,0.092 -0.0995,0.20464 -0.10938,0.31641 -0.008,0.0872 -0.004,0.17289 -0.002,0.25586 -0.0255,-0.0421 -0.0291,-0.0392 -0.0605,-0.0957 -0.10739,-0.19285 -0.25303,-0.47481 -0.44922,-0.86719 -0.08,-0.15999 -0.0151,-0.41831 0.0586,-0.69922 0.0369,-0.14045 0.0732,-0.28408 0.0742,-0.42968 0.001,-0.14561 -0.041,-0.30074 -0.15821,-0.41797 -0.0437,-0.0437 -0.0768,-0.057 -0.13672,-0.0898 -0.0599,-0.0329 -0.13682,-0.0734 -0.23242,-0.11914 -0.19118,-0.0915 -0.4521,-0.2074 -0.76172,-0.33594 -0.61924,-0.25708 -1.4354,-0.56277 -2.28906,-0.82227 -0.85366,-0.2595 -1.74442,-0.47151 -2.51367,-0.53515 -0.76925,-0.0636 -1.43068,0.009 -1.8125,0.39062 -0.22017,0.22017 -0.31566,0.52511 -0.41016,0.8086 -0.0945,0.28348 -0.1879,0.54532 -0.3457,0.70312 -0.20521,0.20521 -0.61762,0.2788 -1.05859,0.3418 -0.44098,0.063 -0.91023,0.1153 -1.20899,0.41406 -0.10976,0.10977 -0.15798,0.27026 -0.22265,0.48047 -0.0647,0.2102 -0.12646,0.46286 -0.18946,0.71484 -0.063,0.25199 -0.12618,0.50386 -0.1875,0.70313 -0.0613,0.19927 -0.14002,0.35487 -0.15625,0.37109 -0.20725,0.20726 -0.63155,0.33117 -1.08203,0.52149 -0.45048,0.19032 -0.93134,0.46425 -1.21094,1.02343 -0.14538,0.29077 -0.0326,0.61151 0.0391,0.88477 0.0358,0.13663 0.0657,0.26438 0.0664,0.36523 8e-4,0.10085 -0.0191,0.16757 -0.0801,0.22852 -0.21326,0.21326 -0.74362,0.33623 -1.42773,0.3457 -0.68411,0.01 -1.51721,-0.0793 -2.34179,-0.21484 -0.824583,-0.13553 -1.642038,-0.31697 -2.300787,-0.48828 -0.658752,-0.17132 -1.169951,-0.33986 -1.337892,-0.42383 -0.15934,-0.0797 -0.35087,-0.0779 -0.566399,-0.0606 -0.21554,0.0173 -0.453631,0.0578 -0.685552,0.0938 -0.231917,0.0359 -0.45734,0.067 -0.636719,0.0684 -0.17938,10e-4 -0.30189,-0.0343 -0.34375,-0.0762 -0.008,-0.008 -0.10514,-0.11761 -0.238281,-0.27344 -0.133138,-0.15583 -0.312608,-0.3697 -0.523438,-0.61914 -0.421651,-0.49887 -0.967272,-1.145 -1.511721,-1.78906 -0.544441,-0.64406 -1.087919,-1.28446 -1.50586,-1.76953 -0.20896,-0.24254 -0.386321,-0.44729 -0.51757,-0.59375 -0.0656,-0.0732 -0.12061,-0.1306 -0.16211,-0.17383 -0.02069,-0.0216 -0.0371,-0.0401 -0.0527,-0.0547 -0.01561,-0.0146 -0.0182,-0.0228 -0.0586,-0.043 -0.403471,-0.20173 -0.8675,-0.0456 -1.2793,0.0625 -0.205912,0.054 -0.401992,0.10037 -0.564462,0.10156 -0.162457,10e-4 -0.283168,-0.0351 -0.388668,-0.14062 -0.01151,-0.0115 -0.01741,-0.0187 -0.01371,-0.0625 0.004,-0.0438 0.0226,-0.10942 0.0449,-0.18164 0.0223,-0.0722 0.0492,-0.15145 0.0566,-0.23828 0.007,-0.0868 -0.01029,-0.19582 -0.0879,-0.27344 -0.509799,-0.50981 -1.668859,-1.0771 -2.89062,-1.62891 -1.221769,-0.55181 -2.500548,-1.07449 -3.19141,-1.41992 -0.796469,-0.39824 -2.257499,-0.52626 -4.089839,-0.52539 -1.83234,8.73e-4 -4.028141,0.1421 -6.25,0.33008 -4.44373,0.37595 -9.000289,0.9375 -10.886721,0.9375 -0.409429,0 -1.41837,-0.13453 -2.380858,-0.20313 -0.481251,-0.0343 -0.954072,-0.0517 -1.347661,-0.0254 -0.393581,0.0263 -0.7117,0.0789 -0.90039,0.26758 -0.0776,0.0776 -0.0972,0.18661 -0.0898,0.27344 0.007,0.0868 0.0344,0.16606 0.0566,0.23828 0.0223,0.0722 0.0412,0.13787 0.0449,0.18164 0.003,0.0314 -0.003,0.0358 -0.008,0.0449 -0.0141,0.004 -0.02609,0.007 -0.0469,0.0117 -0.0644,0.0155 -0.159348,0.0373 -0.279299,0.0644 -0.239879,0.0543 -0.580451,0.129851 -0.99023,0.2207 -0.81956,0.181721 -1.912231,0.42335 -3.017581,0.67774 -1.105349,0.25438 -2.222428,0.520421 -3.091788,0.750001 -0.434692,0.11479 -0.807831,0.221349 -1.087901,0.312499 -0.14003,0.0456 -0.257651,0.0862 -0.349599,0.125 -0.092,0.0388 -0.155112,0.0653 -0.212902,0.123051 -0.0776,0.0776 -0.0953,0.1866 -0.0879,0.273429 0.007,0.0868 0.0324,0.166061 0.0547,0.238281 0.0223,0.0722 0.0412,0.137869 0.0449,0.181639 0.004,0.0438 -2.41e-4,0.051 -0.0117,0.0625 0.01939,-0.0194 0.003,-3.17e-4 -0.0273,0.0117 -0.03,0.012 -0.0756,0.0267 -0.13086,0.043 -0.11058,0.0326 -0.264369,0.0709 -0.44336,0.11133 -0.357968,0.0809 -0.821107,0.171629 -1.279289,0.25586 -0.45819,0.0842 -0.91208,0.16187 -1.251961,0.216799 -0.169939,0.0275 -0.311298,0.0485 -0.410149,0.0625 -0.02389,0.003 -0.0361,0.005 -0.0547,0.008 -0.02371,-0.0444 -0.0415,-0.0897 -0.0254,-0.1875 0.02011,-0.12222 0.0703,-0.27056 0.0703,-0.427741 v -0.082 l -1.586299,-0.791071 c -0.790339,-0.395229 -1.55204,-0.58239 -2.203032,-0.765639 -0.650989,-0.18324 -1.18518,-0.364861 -1.542968,-0.722651 -0.229092,-0.2291 -0.325112,-0.664299 -0.32031,-1.226569 0.005,-0.56227 0.105958,-1.240221 0.21875,-1.931641 0.112779,-0.69142 0.23672,-1.39618 0.28906,-2.025389 0.0523,-0.6292 0.0389,-1.18388 -0.16211,-1.58593 -0.341299,-0.682847 -1.390589,-2.568396 -2.495968,-4.294937 -0.552691,-0.86326 -1.1185,-1.686099 -1.619142,-2.296869 -0.250327,-0.305391 -0.483087,-0.557271 -0.695319,-0.73828 -0.212233,-0.18102 -0.400355,-0.300781 -0.59961,-0.300781 -0.452673,0 -1.826329,-0.15369 -3.146483,-0.23047 -0.66008,-0.0384 -1.310074,-0.0585 -1.839844,-0.0293 z"
       id="path151-4" />
  </g>
</svg>
